<?xml version="1.0" standalone="no"?><!DOCTYPE svg PUBLIC "-//W3C//DTD SVG 1.1//EN" "http://www.w3.org/Graphics/SVG/1.1/DTD/svg11.dtd"><svg t="1544279349079" class="icon" style="" viewBox="0 0 1024 1024" version="1.1" xmlns="http://www.w3.org/2000/svg" p-id="2029" xmlns:xlink="http://www.w3.org/1999/xlink" width="200" height="200"><defs><style type="text/css"></style></defs><path d="M505.63923642 35.78414233c-262.98103611 3.51488795-473.3712686 219.59687168-469.85509409 482.64609561 3.51488795 262.86524553 219.59687168 473.32366578 482.57790782 469.78433314 262.97846299-3.51488795 473.36740891-219.59687168 469.85380752-482.64352248-3.46985829-262.91156176-219.59687168-473.30050767-482.57662125-469.78690627z m52.79536704 158.72961332c48.39661085 0 62.6851708 28.0534891 62.68517079 60.1879535 0 40.14074111-32.15890914 77.24262226-86.97417885 77.24262229-45.85565048 0-67.67317248-23.08607238-66.3801775-61.18632581 0.02315813-32.135751 26.94189937-76.24424999 90.66918556-76.24424998z m-124.14167467 615.15428437c-33.08909363 0-57.30862733-20.09481523-34.17623872-108.40573224l37.94200628-156.54889035c6.57561947-25.10597508 7.66533766-35.15145286 0-35.15145283-9.8885172 0-52.86484142 17.35057805-78.26415263 34.42454519l-16.5104529-27.07698838c80.50920371-67.19714448 173.06191636-106.63542265 212.72405629-106.63542262 33.06593549 0 38.5544099 39.14365541 22.04524355 99.33160893L534.57916688 674.23034909c-7.66405111 29.09560448-4.35501311 39.14365541 3.30903803 39.14365537 9.8885172 0 42.45655307-12.0190642 74.43277037-37.17135552l18.68731618 25.10726162c-78.22040956 78.21654984-163.58252595 108.35812945-196.71536267 108.35812946z" p-id="2030" fill="#ffffff"></path></svg>